<?xml version="1.0" encoding="utf-8"?>
<!-- Generator: Adobe Illustrator 28.0.0, SVG Export Plug-In . SVG Version: 6.00 Build 0)  -->
<svg version="1.1" id="02d" xmlns="http://www.w3.org/2000/svg" xmlns:xlink="http://www.w3.org/1999/xlink" x="0px"
	y="0px" viewBox="0 0 200 200" style="enable-background:new 0 0 200 200;" xml:space="preserve">
	<style type="text/css">
		.st0 {
			fill: #ff9f1c;
		}

		.st1 {
			fill: #F0EFF4;
		}
	</style>
	<circle class="st0" cx="141.3" cy="76.6" r="49.4" />
	<path class="st1" d="M180.3,107.1c0.1-0.8,0.1-1.6,0.1-2.4c0-22.6-18.3-40.9-40.9-40.9c-8.3,0-16,2.5-22.4,6.7
	C111.1,58,98.3,49.4,83.4,49.4c-18,0-33,12.7-36.6,29.6c-2.6-1-5.5-1.5-8.5-1.5c-13.6,0-24.7,11-24.7,24.7c0,2.6,0.4,5.2,1.2,7.5
	C5.9,115.3,0,125.3,0,136.6v4.3c0,17.6,14.3,31.9,31.9,31.9h136.2c17.6,0,31.9-14.3,31.9-31.9v-4.3
	C200,123.3,191.9,111.9,180.3,107.1z" />
</svg>