<?xml version="1.0" encoding="UTF-8"?>
<svg id="Layer_2" data-name="Layer 2" xmlns="http://www.w3.org/2000/svg" viewBox="0 0 235 145">
  <defs>
    <style>
      .cls-1 {
        fill: #f0eff4;
      }
    </style>
  </defs>
  <g id="Layer_1-2" data-name="Layer 1">
    <g id="Layer_1-2" data-name="Layer 1-2">
      <path class="cls-1" d="m211.91,67.87c.06-.95.09-1.91.09-2.87,0-26.51-21.49-48-48-48-9.74,0-18.79,2.91-26.36,7.89C130.53,10.16,115.45,0,98,0c-21.13,0-38.78,14.9-43.02,34.76-3.11-1.14-6.47-1.76-9.98-1.76-16.02,0-29,12.98-29,29,0,3.09.49,6.07,1.38,8.86C6.94,77.52,0,89.19,0,102.5v5c0,20.71,16.79,37.5,37.5,37.5h160c20.71,0,37.5-16.79,37.5-37.5v-5c0-15.61-9.53-28.98-23.09-34.63Z"/>
    </g>
  </g>
</svg>