<?xml version="1.0" encoding="utf-8"?>
<!-- Generator: Adobe Illustrator 28.0.0, SVG Export Plug-In . SVG Version: 6.00 Build 0)  -->
<svg version="1.1" id="03n" xmlns="http://www.w3.org/2000/svg" xmlns:xlink="http://www.w3.org/1999/xlink" x="0px"
  y="0px" viewBox="0 0 200 200" style="enable-background:new 0 0 200 200;" xml:space="preserve">
  <style type="text/css">
    .st0 {
      fill: #F0EFF4;
    }
  </style>
  <path class="st0" d="M180.3,96.1c0.1-0.8,0.1-1.6,0.1-2.4c0-22.6-18.3-40.9-40.9-40.9c-8.3,0-16,2.5-22.4,6.7
	c-6.1-12.5-18.9-21.2-33.7-21.2c-18,0-33,12.7-36.6,29.6c-2.6-1-5.5-1.5-8.5-1.5c-13.6,0-24.7,11-24.7,24.7c0,2.6,0.4,5.2,1.2,7.5
	C5.9,104.3,0,114.2,0,125.5v4.3c0,17.6,14.3,31.9,31.9,31.9h136.2c17.6,0,31.9-14.3,31.9-31.9v-4.3
	C200,112.2,191.9,100.9,180.3,96.1z" />
</svg>