<?xml version="1.0" encoding="utf-8"?>
<!-- Generator: Adobe Illustrator 28.0.0, SVG Export Plug-In . SVG Version: 6.00 Build 0)  -->
<svg version="1.1" id="04d" xmlns="http://www.w3.org/2000/svg" xmlns:xlink="http://www.w3.org/1999/xlink" x="0px"
	y="0px" viewBox="0 0 200 200" style="enable-background:new 0 0 200 200;" xml:space="preserve">
	<style type="text/css">
		.st0 {
			fill: #74776B;
		}

		.st1 {
			fill: #F0EFF4;
		}
	</style>

	<path class="st0" d="M185,82.8c0-0.6,0.1-1.2,0.1-1.9c0-17.2-14-31.2-31.2-31.2c-6.3,0-12.2,1.9-17.1,5.1
			c-4.6-9.6-14.4-16.2-25.7-16.2c-13.7,0-25.2,9.7-27.9,22.6c-2-0.7-4.2-1.1-6.5-1.1c-10.4,0-18.8,8.4-18.8,18.8
			c0,2,0.3,3.9,0.9,5.8c-6.8,4.3-11.3,11.9-11.3,20.5v3.2c0,13.4,10.9,24.3,24.3,24.3h103.9c13.4,0,24.3-10.9,24.3-24.3v-3.2
			C200,95.2,193.8,86.5,185,82.8L185,82.8z" />

	<path class="st1" d="M162.2,102.2c0-0.7,0.1-1.5,0.1-2.2c0-20.3-16.4-36.7-36.7-36.7c-7.5,0-14.4,2.2-20.2,6
			c-5.4-11.3-17-19-30.3-19c-16.2,0-29.7,11.4-32.9,26.6c-2.4-0.9-5-1.3-7.6-1.3c-12.3,0-22.2,9.9-22.2,22.2c0,2.4,0.4,4.6,1.1,6.8
			c-8,5.1-13.3,14-13.3,24.2v3.8c0,15.8,12.8,28.7,28.7,28.7h122.4c15.8,0,28.7-12.8,28.7-28.7v-3.8
			C179.8,116.8,172.5,106.5,162.2,102.2z" />

</svg>