<?xml version="1.0" encoding="utf-8"?>
<!-- Generator: Adobe Illustrator 28.0.0, SVG Export Plug-In . SVG Version: 6.00 Build 0)  -->
<svg version="1.1" id="09d" xmlns="http://www.w3.org/2000/svg" xmlns:xlink="http://www.w3.org/1999/xlink" x="0px"
	y="0px" viewBox="0 0 200 200" style="enable-background:new 0 0 200 200;" xml:space="preserve">
	<style type="text/css">
		.st0 {
			fill: #74776B;
		}

		.st1 {
			fill: #00A6FB;
		}

		.st2 {
			fill: #F0EFF4;
		}
	</style>

	<path class="st0" d="M185,47.8c0-0.6,0.1-1.2,0.1-1.9c0-17.2-13.9-31.1-31.1-31.1c-6.3,0-12.2,1.9-17.1,5.1
		c-4.6-9.6-14.4-16.2-25.7-16.2c-13.7,0-25.2,9.7-27.9,22.6c-2-0.7-4.2-1.1-6.5-1.1c-10.4,0-18.8,8.4-18.8,18.8c0,2,0.3,3.9,0.9,5.7
		C52,54.1,47.5,61.6,47.5,70.3v3.2c0,13.4,10.9,24.3,24.3,24.3h103.8c13.4,0,24.3-10.9,24.3-24.3v-3.2C200,60.1,193.8,51.5,185,47.8
		L185,47.8z" />
	<path class="st1"
		d="M68.9,178.5c-1.6-0.7-9.5,12.2-8,16.4c0.4,1.3,1.9,1.7,3,1.1C67.8,193.9,70.5,179.2,68.9,178.5z" />
	<path class="st1" d="M61.3,144c-1.6-0.7-9.5,12.2-8,16.4c0.4,1.3,1.9,1.7,3,1.1C60.2,159.5,62.9,144.7,61.3,144z" />
	<path class="st1" d="M95.7,161.7c-1.6-0.7-9.5,12.2-8,16.4c0.4,1.3,1.9,1.7,3,1.1C94.6,177,97.3,162.3,95.7,161.7z" />
	<path class="st1"
		d="M137.8,165.5c-1.6-0.7-9.5,12.2-8,16.4c0.4,1.3,1.9,1.7,3,1.1C136.7,180.8,139.4,166.1,137.8,165.5z" />
	<path class="st1" d="M37.6,122.6c-1.6-0.7-9.5,12.2-8,16.4c0.4,1.3,1.9,1.7,3,1.1C36.5,138,39.2,123.3,37.6,122.6z" />
	<path class="st1"
		d="M33.8,165.5c-1.6-0.7-9.5,12.2-8,16.4c0.4,1.3,1.9,1.7,3,1.1C32.7,180.8,35.4,166.1,33.8,165.5z" />
	<path class="st1"
		d="M91.9,126.4c-1.6-0.7-9.5,12.2-8,16.4c0.4,1.3,1.9,1.7,3,1.1C90.8,141.8,93.5,127.1,91.9,126.4z" />
	<path class="st1"
		d="M120.2,136.4c-1.6-0.7-9.5,12.2-8,16.4c0.4,1.3,1.9,1.7,3,1.1C119.1,151.8,121.8,137.1,120.2,136.4z" />
	<path class="st1"
		d="M150.8,124.9c-1.6-0.7-9.5,12.2-8,16.4c0.4,1.3,1.9,1.7,3,1.1C149.7,140.3,152.4,125.6,150.8,124.9z" />
	<path class="st2" d="M162.3,67.1c0.1-0.8,0.1-1.4,0.1-2.2c0-20.3-16.5-36.7-36.7-36.7c-7.4,0-14.4,2.2-20.2,6.1
			C100,23,88.4,15.2,75.1,15.2c-16.2,0-29.7,11.4-32.9,26.6c-2.4-0.8-5-1.4-7.6-1.4c-12.2,0-22.2,10-22.2,22.2c0,2.4,0.3,4.6,1,6.8
			C5.3,74.5,0,83.5,0,93.7v3.8c0,15.9,12.8,28.7,28.7,28.7h122.5c15.9,0,28.7-12.8,28.7-28.7v-3.8C179.9,81.7,172.7,71.5,162.3,67.1
			z" />

</svg>