<?xml version="1.0" encoding="utf-8"?>
<!-- Generator: Adobe Illustrator 28.0.0, SVG Export Plug-In . SVG Version: 6.00 Build 0)  -->
<svg version="1.1" id="10n" xmlns="http://www.w3.org/2000/svg"
	xmlns:xlink="http://www.w3.org/1999/xlink" x="0px" y="0px" viewBox="0 0 200 200"
	style="enable-background:new 0 0 200 200;" xml:space="preserve">
	<style type="text/css">
		.st0 {
			fill: #00A6FB;
		}

		.st1 {
			fill: #74776B;
		}

		.st2 {
			fill: #F0EFF4;
		}
	</style>
	<path class="st0" d="M79,182.3c-1.6-0.7-9.4,12.2-8,16.3c0.4,1.3,1.9,1.7,3,1.1C77.9,197.6,80.6,183,79,182.3z" />
	<path class="st0" d="M71.4,147.9c-1.6-0.7-9.5,12.2-8,16.3c0.4,1.3,1.9,1.7,3,1.1C70.3,163.3,73,148.6,71.4,147.9z" />
	<path class="st0"
		d="M105.7,165.5c-1.6-0.7-9.4,12.2-8,16.3c0.4,1.3,1.9,1.7,3,1.1C104.6,180.9,107.3,166.1,105.7,165.5z" />
	<path class="st0"
		d="M147.7,169.3c-1.6-0.7-9.4,12.2-8,16.3c0.4,1.3,1.9,1.7,3,1.1C146.6,184.7,149.3,170,147.7,169.3z" />
	<path class="st0"
		d="M47.8,126.6c-1.6-0.7-9.4,12.2-8,16.3c0.4,1.3,1.9,1.7,2.9,1.1C46.7,141.9,49.4,127.3,47.8,126.6z" />
	<path class="st0" d="M44,169.3c-1.6-0.7-9.4,12.2-8,16.3c0.4,1.3,1.9,1.7,2.9,1.1C42.9,184.7,45.6,170,44,169.3z" />
	<path class="st0"
		d="M101.9,130.4c-1.6-0.7-9.4,12.2-8,16.3c0.4,1.3,1.9,1.7,3,1.1C100.8,145.7,103.5,131.1,101.9,130.4z" />
	<path class="st0"
		d="M130.2,140.3c-1.6-0.7-9.4,12.2-8,16.3c0.4,1.3,1.9,1.7,3,1.1C129.1,155.7,131.8,141,130.2,140.3z" />
	<path class="st0"
		d="M160.7,128.9c-1.6-0.7-9.4,12.2-8,16.3c0.4,1.3,1.9,1.7,3,1.1C159.6,144.2,162.3,129.6,160.7,128.9z" />
	<circle class="st1" cx="137.1" cy="44.3" r="44.3" />
	<path class="st2" d="M172.1,71.7c0.1-0.8,0.1-1.4,0.1-2.2c0-20.2-16.4-36.6-36.6-36.6c-7.4,0-14.3,2.2-20.1,6.1
		c-5.4-11.3-16.9-19-30.2-19c-16.2,0-29.7,11.4-32.9,26.5c-2.4-0.8-5-1.3-7.6-1.3c-12.2,0-22.2,9.9-22.2,22.2c0,2.4,0.3,4.6,1,6.7
		c-8,5.1-13.3,14-13.3,24.2v3.8c0,15.8,12.8,28.6,28.6,28.6h122.2c15.8,0,28.6-12.8,28.6-28.6v-3.8C189.7,86.2,182.5,76,172.1,71.7z
		" />
</svg>