<?xml version="1.0" encoding="utf-8"?>
<!-- Generator: Adobe Illustrator 28.0.0, SVG Export Plug-In . SVG Version: 6.00 Build 0)  -->
<svg version="1.1" id="11n" xmlns="http://www.w3.org/2000/svg" xmlns:xlink="http://www.w3.org/1999/xlink" x="0px"
  y="0px" viewBox="0 0 200 200" style="enable-background:new 0 0 200 200;" xml:space="preserve">
  <style type="text/css">
    .st0 {
      fill: #74776B;
    }

    .st1 {
      fill: #F0EFF4;
    }

    .st2 {
      fill: #FF9F1C;
    }
  </style>

  <path class="st0" d="M185,47.3c0-0.6,0.1-1.2,0.1-1.9c0-17.2-14-31.2-31.2-31.2c-6.3,0-12.2,1.9-17.1,5.1
				c-4.6-9.6-14.4-16.2-25.7-16.2c-13.7,0-25.2,9.7-27.9,22.6c-2-0.7-4.2-1.1-6.5-1.1c-10.4,0-18.8,8.4-18.8,18.8
				c0,2,0.3,3.9,0.9,5.8c-6.8,4.3-11.3,11.9-11.3,20.5V73c0,13.4,10.9,24.3,24.3,24.3h103.9c13.4,0,24.3-10.9,24.3-24.3v-3.2
				C200,59.6,193.8,51,185,47.3L185,47.3L185,47.3z" />
  <path class="st1"
    d="M162.2,66.6c0-0.7,0.1-1.5,0.1-2.2c0-20.3-16.4-36.7-36.7-36.7c-7.5,0-14.4,2.2-20.2,6
				c-5.4-11.3-17-19-30.3-19c-16.2,0-29.7,11.4-32.9,26.6c-2.4-0.9-5-1.3-7.6-1.3c-12.3,0-22.2,9.9-22.2,22.2c0,2.4,0.4,4.6,1.1,6.8
				C5.3,74,0,83,0,93.1V97c0,15.8,12.8,28.7,28.7,28.7h122.4c15.8,0,28.7-12.8,28.7-28.7v-3.8C179.8,81.2,172.5,71,162.2,66.6z" />
  <path class="st2" d="M59,121.2l27.6-0.1c0.5,0,0.8,0.6,0.5,1l-19.3,23.3c-0.3,0.4,0,1,0.5,1h12.6c0.5,0,0.8,0.6,0.5,1l-38.8,49.2
		c-0.4,0.5-1.3,0.1-1-0.6l15.9-40.8c0.2-0.4-0.1-0.8-0.6-0.8H43.8c-0.4,0-0.7-0.5-0.5-0.8l15.3-31.9C58.6,121.4,58.8,121.2,59,121.2
		L59,121.2z" />

</svg>