<?xml version="1.0" encoding="utf-8"?>
<!-- Generator: Adobe Illustrator 28.0.0, SVG Export Plug-In . SVG Version: 6.00 Build 0)  -->
<svg version="1.1" id="13n" xmlns="http://www.w3.org/2000/svg" xmlns:xlink="http://www.w3.org/1999/xlink" x="0px"
	y="0px" viewBox="0 0 200 200" style="enable-background:new 0 0 200 200;" xml:space="preserve">
	<style type="text/css">
		.st0 {
			fill: none;
			stroke: #74776B;
			stroke-width: 7;
			stroke-linecap: round;
			stroke-linejoin: bevel;
		}
	</style>

	<polygon class="st0" points="134.2,119.2 134.2,80.8 100.8,61.6 67.4,80.8 67.4,119.2 100.8,138.4 		" />
	<line class="st0" x1="100.3" y1="61.3" x2="100.3" y2="3.5" />
	<line class="st0" x1="119" y1="14.7" x2="100.4" y2="32.2" />
	<line class="st0" x1="81.8" y1="14.7" x2="100.4" y2="32.2" />
	<line class="st0" x1="100.3" y1="138.7" x2="100.3" y2="196.5" />
	<line class="st0" x1="119" y1="185.7" x2="100.4" y2="168.2" />
	<line class="st0" x1="81.8" y1="185.7" x2="100.4" y2="168.2" />
	<line class="st0" x1="134.3" y1="80" x2="182.3" y2="48.4" />
	<line class="st0" x1="183.6" y1="69.8" x2="158.7" y2="63.9" />
	<line class="st0" x1="163.1" y1="38.8" x2="158.7" y2="63.9" />
	<line class="st0" x1="134.5" y1="119.5" x2="180.9" y2="153.3" />
	<line class="st0" x1="183.2" y1="132.1" x2="158" y2="136.8" />
	<line class="st0" x1="161.2" y1="162" x2="158" y2="136.8" />
	<line class="st0" x1="65.7" y1="80.5" x2="17.7" y2="49" />
	<line class="st0" x1="16.4" y1="70.3" x2="41.3" y2="64.5" />
	<line class="st0" x1="36.9" y1="39.4" x2="41.3" y2="64.5" />
	<line class="st0" x1="65.5" y1="120.1" x2="19.1" y2="153.9" />
	<line class="st0" x1="16.8" y1="132.6" x2="42" y2="137.3" />
	<line class="st0" x1="38.8" y1="162.6" x2="42" y2="137.3" />

</svg>