<?xml version="1.0" encoding="utf-8"?>
<!-- Generator: Adobe Illustrator 28.0.0, SVG Export Plug-In . SVG Version: 6.00 Build 0)  -->
<svg version="1.1" id="pressure-icon" xmlns="http://www.w3.org/2000/svg" xmlns:xlink="http://www.w3.org/1999/xlink"
	x="0px" y="0px" viewBox="0 0 200 200" style="enable-background:new 0 0 200 200;" xml:space="preserve">
	<style type="text/css">
		.st0 {
			fill-rule: evenodd;
			clip-rule: evenodd;
		}
	</style>
	<g>
		<path class="st0" d="M194.3,196c-0.2,0-0.5-0.1-0.7-0.2l-89.4-42.9c-1.3-0.6-2.7-0.9-4.1-0.9s-2.9,0.3-4.1,0.9L6.4,195.8
		C6.2,195.9,6,196,5.7,196c-0.5,0-1-0.3-1.3-0.8c-0.4-0.7-0.1-1.3,0-1.5L98.6,5.2c0.4-0.7,1-0.9,1.4-0.9s1,0.1,1.4,0.9l94.2,188.5
		c0.1,0.2,0.4,0.8,0,1.5C195.3,195.7,194.8,196,194.3,196z" />
		<path
			d="M102.2,7L102.2,7L102.2,7 M100,11.4l88.9,177.7l-83-39.8c-1.8-0.9-3.8-1.3-5.9-1.3c-2,0-4,0.5-5.9,1.3l-83,39.8L100,11.4
		 M100,0.4c-2,0-3.9,1-5,3.1L0.8,191.9c-2,3.9,1.1,8.1,4.9,8.1c0.8,0,1.6-0.2,2.4-0.6l89.4-42.9c0.8-0.4,1.6-0.5,2.4-0.5
		s1.6,0.2,2.4,0.5l89.4,42.9c0.8,0.4,1.6,0.6,2.4,0.6c3.8,0,6.9-4.1,4.9-8.1L105,3.5C103.9,1.4,102,0.4,100,0.4L100,0.4z" />
	</g>
</svg>