<?xml version="1.0" encoding="utf-8"?>
<!-- Generator: Adobe Illustrator 28.0.0, SVG Export Plug-In . SVG Version: 6.00 Build 0)  -->
<svg version="1.1" id="wind-arrow-icon" xmlns="http://www.w3.org/2000/svg" xmlns:xlink="http://www.w3.org/1999/xlink" x="0px"
	 y="0px" viewBox="0 0 200 200" style="enable-background:new 0 0 200 200;" xml:space="preserve">
<style type="text/css">
	.st0{fill-rule:evenodd;clip-rule:evenodd;fill:#FFFFFF;}
	.st1{fill:#FFFFFF;}
</style>
<g>
	<path class="st0" d="M5.5,4.4c0.2,0,0.5,0.1,0.7,0.2l89.4,42.9c1.3,0.6,2.7,0.9,4.1,0.9s2.9-0.3,4.1-0.9l89.6-42.9
		c0.2-0.1,0.4-0.2,0.7-0.2c0.5,0,1,0.3,1.3,0.8c0.4,0.7,0.1,1.3,0,1.5l-94.2,188.5c-0.4,0.7-1,0.9-1.4,0.9s-1-0.1-1.4-0.9L4.2,6.7
		c-0.1-0.2-0.4-0.8,0-1.5C4.5,4.7,5,4.4,5.5,4.4z"/>
	<path class="st1" d="M97.6,193.4L97.6,193.4L97.6,193.4 M99.8,189L10.9,11.3l83,39.8c1.8,0.9,3.8,1.3,5.9,1.3c2,0,4-0.5,5.9-1.3
		l83-39.8L99.8,189 M99.8,200c2,0,3.9-1,5-3.1L199,8.5c2-3.9-1.1-8.1-4.9-8.1c-0.8,0-1.6,0.2-2.4,0.6l-89.4,42.9
		c-0.8,0.4-1.6,0.5-2.4,0.5s-1.6-0.2-2.4-0.5L8.1,1C7.3,0.6,6.5,0.4,5.7,0.4c-3.8,0-6.9,4.1-4.9,8.1l94,188.4
		C95.9,199,97.8,200,99.8,200L99.8,200z"/>
</g>
</svg>
