<?xml version="1.0" encoding="UTF-8"?>
<svg id="Layer_2" data-name="Layer 2" xmlns="http://www.w3.org/2000/svg" viewBox="0 0 235 171">
  <defs>
    <style>
      .cls-1 {
        fill: #74776b;
      }

      .cls-2 {
        fill: #f0eff4;
      }
    </style>
  </defs>
  <g id="Layer_1-2" data-name="Layer 1">
    <circle class="cls-1" cx="166" cy="58" r="58"/>
    <g id="Layer_1-2" data-name="Layer 1-2">
      <path class="cls-2" d="m211.91,93.87c.06-.95.09-1.91.09-2.87,0-26.51-21.49-48-48-48-9.74,0-18.79,2.91-26.36,7.89-7.11-14.73-22.19-24.89-39.64-24.89-21.13,0-38.78,14.9-43.02,34.76-3.11-1.14-6.47-1.76-9.98-1.76-16.02,0-29,12.98-29,29,0,3.09.49,6.07,1.38,8.86C6.94,103.52,0,115.19,0,128.5v5c0,20.71,16.79,37.5,37.5,37.5h160c20.71,0,37.5-16.79,37.5-37.5v-5c0-15.61-9.53-28.98-23.09-34.63Z"/>
    </g>
  </g>
</svg>