<?xml version="1.0" encoding="UTF-8"?>
<svg id="Layer_2" data-name="Layer 2" xmlns="http://www.w3.org/2000/svg" viewBox="0 0 261.34 160">
  <defs>
    <style>
      .cls-1 {
        fill: #74776b;
      }

      .cls-2 {
        fill: #f0eff4;
      }
    </style>
  </defs>
  <g id="Layer_1-2" data-name="Layer 1">
    <g id="Layer_1-2" data-name="Layer 1-2">
      <path class="cls-1" d="m241.76,57.57c.05-.81.08-1.62.08-2.43,0-22.49-18.23-40.72-40.72-40.72-8.26,0-15.94,2.47-22.36,6.69-6.03-12.5-18.82-21.11-33.63-21.11-17.92,0-32.9,12.64-36.49,29.49-2.64-.97-5.49-1.49-8.47-1.49-13.59,0-24.6,11.01-24.6,24.6,0,2.62.42,5.15,1.17,7.52-8.86,5.65-14.74,15.55-14.74,26.84v4.24c0,17.57,14.24,31.81,31.81,31.81h135.72c17.57,0,31.81-14.24,31.81-31.81v-4.24c0-13.24-8.08-24.58-19.59-29.38Z"/>
    </g>
    <g id="Layer_1-2-2" data-name="Layer 1-2">
      <path class="cls-2" d="m211.91,82.87c.06-.95.09-1.91.09-2.87,0-26.51-21.49-48-48-48-9.74,0-18.79,2.91-26.36,7.89-7.11-14.73-22.19-24.89-39.64-24.89-21.13,0-38.78,14.9-43.02,34.76-3.11-1.14-6.47-1.76-9.98-1.76-16.02,0-29,12.98-29,29,0,3.09.49,6.07,1.38,8.86C6.94,92.52,0,104.19,0,117.5v5c0,20.71,16.79,37.5,37.5,37.5h160c20.71,0,37.5-16.79,37.5-37.5v-5c0-15.61-9.53-28.98-23.09-34.63Z"/>
    </g>
  </g>
</svg>