<?xml version="1.0" encoding="UTF-8"?>
<svg id="Layer_2" data-name="Layer 2" xmlns="http://www.w3.org/2000/svg" viewBox="0 0 236.61 233.45">
  <defs>
    <style>
      .cls-1 {
        fill: #12355b;
      }

      .cls-2 {
        fill: #74776b;
      }

      .cls-3 {
        fill: #f0eff4;
      }
    </style>
  </defs>
  <g id="Layer_1-2" data-name="Layer 1">
    <g id="Layer_1-2" data-name="Layer 1-2">
      <path class="cls-2" d="m218.88,52.12c.05-.73.07-1.47.07-2.2,0-20.36-16.5-36.86-36.86-36.86-7.48,0-14.43,2.23-20.24,6.06-5.46-11.31-17.04-19.12-30.44-19.12-16.23,0-29.78,11.44-33.04,26.7-2.39-.88-4.97-1.35-7.66-1.35-12.3,0-22.27,9.97-22.27,22.27,0,2.37.38,4.66,1.06,6.8-8.02,5.11-13.35,14.08-13.35,24.3v3.84c0,15.91,12.89,28.8,28.8,28.8h122.88c15.91,0,28.8-12.89,28.8-28.8v-3.84c0-11.99-7.32-22.26-17.73-26.6Z"/>
    </g>
    <path class="cls-1" d="m95.88,212.4c-1.91-.79-11.25,14.54-9.53,19.42.54,1.52,2.16,2.04,3.55,1.3,4.69-2.5,7.87-19.94,5.98-20.72Z"/>
    <path class="cls-1" d="m86.83,171.66c-1.91-.79-11.25,14.54-9.53,19.42.54,1.52,2.16,2.04,3.55,1.3,4.69-2.5,7.87-19.94,5.98-20.72Z"/>
    <path class="cls-1" d="m127.57,192.48c-1.91-.79-11.25,14.54-9.53,19.42.54,1.52,2.16,2.04,3.55,1.3,4.69-2.5,7.87-19.94,5.98-20.72Z"/>
    <path class="cls-1" d="m177.37,197.01c-1.91-.79-11.25,14.54-9.53,19.42.54,1.52,2.16,2.04,3.55,1.3,4.69-2.5,7.87-19.94,5.98-20.72Z"/>
    <path class="cls-1" d="m58.76,146.31c-1.91-.79-11.25,14.54-9.53,19.42.54,1.52,2.16,2.04,3.55,1.3,4.69-2.5,7.87-19.94,5.98-20.72Z"/>
    <path class="cls-1" d="m54.24,197.01c-1.91-.79-11.25,14.54-9.53,19.42.54,1.52,2.16,2.04,3.55,1.3,4.69-2.5,7.87-19.94,5.98-20.72Z"/>
    <path class="cls-1" d="m123.04,150.83c-1.91-.79-11.25,14.54-9.53,19.42.54,1.52,2.16,2.04,3.55,1.3,4.69-2.5,7.87-19.94,5.98-20.72Z"/>
    <path class="cls-1" d="m156.54,162.6c-1.91-.79-11.25,14.54-9.53,19.42.54,1.52,2.16,2.04,3.55,1.3,4.69-2.5,7.87-19.94,5.98-20.72Z"/>
    <path class="cls-1" d="m192.76,149.02c-1.91-.79-11.25,14.54-9.53,19.42.54,1.52,2.16,2.04,3.55,1.3,4.69-2.5,7.87-19.94,5.98-20.72Z"/>
    <g id="Layer_1-2-2" data-name="Layer 1-2">
      <path class="cls-3" d="m191.85,75.03c.05-.86.08-1.73.08-2.6,0-24-19.46-43.46-43.46-43.46-8.82,0-17.01,2.63-23.87,7.14-6.44-13.34-20.09-22.53-35.89-22.53-19.13,0-35.11,13.49-38.95,31.47-2.82-1.03-5.86-1.59-9.04-1.59-14.5,0-26.26,11.75-26.26,26.26,0,2.8.44,5.5,1.25,8.02C6.28,83.76,0,94.33,0,106.38v4.53c0,18.75,15.2,33.95,33.95,33.95h144.86c18.75,0,33.95-15.2,33.95-33.95v-4.53c0-14.13-8.63-26.24-20.9-31.35Z"/>
    </g>
  </g>
</svg>