<?xml version="1.0" encoding="UTF-8"?>
<svg id="Layer_2" data-name="Layer 2" xmlns="http://www.w3.org/2000/svg" viewBox="0 0 213 243.44">
  <defs>
    <style>
      .cls-1 {
        fill: #12355b;
      }

      .cls-2 {
        fill: #ff9f1c;
      }

      .cls-3 {
        fill: #f0eff4;
      }
    </style>
  </defs>
  <g id="Layer_1-2" data-name="Layer 1">
    <path class="cls-1" d="m96.28,222.39c-1.91-.79-11.25,14.54-9.53,19.42.54,1.52,2.16,2.04,3.55,1.3,4.69-2.5,7.87-19.94,5.98-20.72Z"/>
    <path class="cls-1" d="m87.22,181.65c-1.91-.79-11.25,14.54-9.53,19.42.54,1.52,2.16,2.04,3.55,1.3,4.69-2.5,7.87-19.94,5.98-20.72Z"/>
    <path class="cls-1" d="m127.96,202.47c-1.91-.79-11.25,14.54-9.53,19.42.54,1.52,2.16,2.04,3.55,1.3,4.69-2.5,7.87-19.94,5.98-20.72Z"/>
    <path class="cls-1" d="m177.76,207c-1.91-.79-11.25,14.54-9.53,19.42.54,1.52,2.16,2.04,3.55,1.3,4.69-2.5,7.87-19.94,5.98-20.72Z"/>
    <path class="cls-1" d="m59.16,156.3c-1.91-.79-11.25,14.54-9.53,19.42.54,1.52,2.16,2.04,3.55,1.3,4.69-2.5,7.87-19.94,5.98-20.72Z"/>
    <path class="cls-1" d="m54.63,207c-1.91-.79-11.25,14.54-9.53,19.42.54,1.52,2.16,2.04,3.55,1.3,4.69-2.5,7.87-19.94,5.98-20.72Z"/>
    <path class="cls-1" d="m123.44,160.82c-1.91-.79-11.25,14.54-9.53,19.42.54,1.52,2.16,2.04,3.55,1.3,4.69-2.5,7.87-19.94,5.98-20.72Z"/>
    <path class="cls-1" d="m156.93,172.59c-1.91-.79-11.25,14.54-9.53,19.42.54,1.52,2.16,2.04,3.55,1.3,4.69-2.5,7.87-19.94,5.98-20.72Z"/>
    <path class="cls-1" d="m193.15,159.01c-1.91-.79-11.25,14.54-9.53,19.42.54,1.52,2.16,2.04,3.55,1.3,4.69-2.5,7.87-19.94,5.98-20.72Z"/>
    <circle class="cls-2" cx="150.46" cy="52.57" r="52.57"/>
    <g id="Layer_1-2" data-name="Layer 1-2">
      <path class="cls-3" d="m192.07,85.08c.05-.86.08-1.73.08-2.6,0-24.03-19.48-43.51-43.51-43.51-8.83,0-17.03,2.64-23.89,7.15-6.44-13.35-20.11-22.56-35.93-22.56-19.15,0-35.15,13.51-38.99,31.51-2.82-1.03-5.86-1.6-9.05-1.6-14.52,0-26.29,11.76-26.29,26.29,0,2.8.44,5.5,1.25,8.03C6.29,93.83,0,104.41,0,116.47v4.53c0,18.77,15.22,33.99,33.99,33.99h145.02c18.77,0,33.99-15.22,33.99-33.99v-4.53c0-14.15-8.64-26.27-20.93-31.39Z"/>
    </g>
  </g>
</svg>