<?xml version="1.0" encoding="utf-8"?>
<!-- Generator: Adobe Illustrator 27.1.1, SVG Export Plug-In . SVG Version: 6.00 Build 0)  -->
<svg version="1.1" id="Layer_2_00000024680323888327244720000016571490059069463217_"
	 xmlns="http://www.w3.org/2000/svg" xmlns:xlink="http://www.w3.org/1999/xlink" x="0px" y="0px" viewBox="0 0 213 243.4"
	 style="enable-background:new 0 0 213 243.4;" xml:space="preserve">
<style type="text/css">
	.st0{fill:#00A6FB;}
	.st1{fill:#74776B;}
	.st2{fill:#F0EFF4;}
</style>
<path class="st0" d="M81.6,216.4c-1.9-0.8-11.2,14.5-9.5,19.4c0.5,1.5,2.2,2,3.6,1.3C80.3,234.6,83.5,217.2,81.6,216.4z"/>
<path class="st0" d="M72.6,175.6c-1.9-0.8-11.3,14.5-9.5,19.4c0.5,1.5,2.2,2,3.6,1.3C71.3,193.9,74.4,176.4,72.6,175.6z"/>
<path class="st0" d="M113.3,196.5c-1.9-0.8-11.2,14.5-9.5,19.4c0.5,1.5,2.2,2,3.6,1.3C112,214.7,115.2,197.2,113.3,196.5z"/>
<path class="st0" d="M163.1,201c-1.9-0.8-11.2,14.5-9.5,19.4c0.5,1.5,2.2,2,3.6,1.3C161.8,219.2,165,201.8,163.1,201z"/>
<path class="st0" d="M44.5,150.3c-1.9-0.8-11.2,14.5-9.5,19.4c0.5,1.5,2.2,2,3.5,1.3C43.2,168.5,46.4,151.1,44.5,150.3z"/>
<path class="st0" d="M40,201c-1.9-0.8-11.2,14.5-9.5,19.4c0.5,1.5,2.2,2,3.5,1.3C38.7,219.2,41.9,201.8,40,201z"/>
<path class="st0" d="M108.8,154.8c-1.9-0.8-11.2,14.5-9.5,19.4c0.5,1.5,2.2,2,3.6,1.3C107.5,173,110.7,155.6,108.8,154.8z"/>
<path class="st0" d="M142.3,166.6c-1.9-0.8-11.2,14.5-9.5,19.4c0.5,1.5,2.2,2,3.6,1.3C141,184.8,144.2,167.4,142.3,166.6z"/>
<path class="st0" d="M178.5,153c-1.9-0.8-11.2,14.5-9.5,19.4c0.5,1.5,2.2,2,3.6,1.3C177.2,171.2,180.4,153.8,178.5,153z"/>
<circle class="st1" cx="150.5" cy="52.6" r="52.6"/>
<g id="Layer_1-2">
	<path class="st2" d="M192.1,85.1c0.1-0.9,0.1-1.7,0.1-2.6c0-24-19.5-43.5-43.5-43.5c-8.8,0-17,2.6-23.9,7.2
		c-6.4-13.4-20.1-22.6-35.9-22.6c-19.2,0-35.2,13.5-39,31.5c-2.8-1-5.9-1.6-9-1.6c-14.5,0-26.3,11.8-26.3,26.3c0,2.8,0.4,5.5,1.2,8
		C6.3,93.8,0,104.4,0,116.5v4.5c0,18.8,15.2,34,34,34h145c18.8,0,34-15.2,34-34v-4.5C213,102.3,204.4,90.2,192.1,85.1z"/>
</g>
</svg>
