<?xml version="1.0" encoding="UTF-8"?><svg id="b" xmlns="http://www.w3.org/2000/svg" width="159.69" height="184" viewBox="0 0 159.69 184"><defs><style>.d{fill:none;stroke:#74776b;stroke-linecap:round;stroke-linejoin:bevel;stroke-width:7px;}</style></defs><g id="c"><g><polygon class="d" points="111.09 109.65 111.09 74.43 80.59 56.82 50.09 74.43 50.09 109.65 80.59 127.26 111.09 109.65"/><line class="d" x1="80.09" y1="56.5" x2="80.09" y2="3.5"/><line class="d" x1="97.21" y1="13.8" x2="80.21" y2="29.8"/><line class="d" x1="63.21" y1="13.8" x2="80.21" y2="29.8"/><line class="d" x1="80.09" y1="127.5" x2="80.09" y2="180.5"/><line class="d" x1="97.21" y1="170.58" x2="80.21" y2="154.58"/><line class="d" x1="63.21" y1="170.58" x2="80.21" y2="154.58"/><line class="d" x1="111.22" y1="73.64" x2="155.04" y2="44.72"/><line class="d" x1="156.19" y1="64.27" x2="133.47" y2="58.89"/><line class="d" x1="137.47" y1="35.89" x2="133.47" y2="58.89"/><line class="d" x1="111.37" y1="109.9" x2="153.75" y2="140.9"/><line class="d" x1="155.83" y1="121.43" x2="132.88" y2="125.71"/><line class="d" x1="135.76" y1="148.87" x2="132.88" y2="125.71"/><line class="d" x1="48.47" y1="74.15" x2="4.65" y2="45.23"/><line class="d" x1="3.5" y1="64.78" x2="26.22" y2="59.4"/><line class="d" x1="22.22" y1="36.4" x2="26.22" y2="59.4"/><line class="d" x1="48.32" y1="110.42" x2="5.95" y2="141.41"/><line class="d" x1="3.86" y1="121.94" x2="26.81" y2="126.22"/><line class="d" x1="23.93" y1="149.38" x2="26.81" y2="126.22"/></g></g></svg>